<svg viewBox="0 0 320.45 367.32" xmlns="http://www.w3.org/2000/svg" xmlns:xlink="http://www.w3.org/1999/xlink"><linearGradient id="a" gradientTransform="translate(-.27 -4.41)" gradientUnits="userSpaceOnUse" x1="158.97" x2="158.97" y1="183.74" y2="154.34"><stop offset="0" stop-color="#fff" stop-opacity="0"/><stop offset="1" stop-opacity=".4"/></linearGradient><linearGradient id="b" gradientTransform="matrix(.99968856 -.02495562 .02495562 .99968856 23.92 -12.06)" x1="21.68" x2="40.68" xlink:href="#a" y1="120.52" y2="120.52"/><path d="m59 92.23s-16.28 19.27-13 25.68 16.9 8.45 26.55 5.25 6.45-29.16 6.45-29.16l-15.77-8.25z" fill="#f4504e"/><path d="m95.52 67.81s.2-10.81-2.52-13.06-13.81-4-21.56-2.2-23.77 20.05-25.44 27.67 19.24 14.45 19.24 14.45z" fill="#f4504e"/><path d="m211.79 132.21s29.13 1.25 31.64-6.92-1.51-25-1.51-25-15.91 2-15.34-5.09.79-20.08 11.89-18.75 17.3 21 17.54 25 4.93 31.76-.57 40.1-40 9.94-40 9.94z" fill="#148ae9"/><path d="m238.45 200.23-20 1.21-4.45-73.44a1.37 1.37 0 0 0 0-.19 1.48 1.48 0 0 0 0-.21c-2.87-47.41-39.6-83.76-82-81.19s-74.57 43.06-71.7 90.47v.21a1.15 1.15 0 0 1 0 .19l4.42 73.06a34.51 34.51 0 0 0 36 32.28l.67 11-21 1.27.91 15 23-1.39c10-.61 9.5-8.59 9.5-8.59l-1.09-18 73.46-4.45a34.52 34.52 0 0 0 30.68-23.89l15.31-.93 1.27 21 15-.91-1.39-23c-.6-9.99-8.59-9.5-8.59-9.5z" fill="#148ae9"/><ellipse cx="146.29" cy="125.11" fill="#e0e0e0" rx="64.17" ry="71.5" transform="matrix(.60779171 -.79409649 .79409649 .60779171 -41.97 165.22)"/><path d="m107.8 135.51c1.8 25.38 23 44.68 47.7 43.19s43.41-23.22 42.14-48.63z" fill="#3b414b"/><circle cx="113.82" cy="119.11" fill="#3c414b" r="7"/><circle cx="189.68" cy="114.52" fill="#3c414b" r="7"/><path d="m67 161.32s-29.13-1.25-31.64 6.92 1.51 24.95 1.51 24.95 15.91-2 15.33 5.09-.75 20.08-11.85 18.72-17.3-21-17.54-25-4.93-31.76.58-40.1 40-9.94 40-9.94z" fill="#148ae9"/><g fill="#f4504e"><path d="m233.47 242.1.79 13s35.42 5.87 41-1.48-13.78-12.21-41.79-11.52z"/><path d="m74.3 254.45-12.42-3.84s-18 31.08-13.06 38.88 16.26-8.58 25.48-35.04z"/><path d="m187.91 161.37a20.47 20.47 0 0 0 -30.63-11.22 20.5 20.5 0 0 0 -29.37 19.7c0 .42.09.83.14 1.25a44 44 0 0 0 59.86-9.73z"/></g><path d="m185.65 163a19 19 0 0 0 -18.91-13.46 18 18 0 0 0 -8.74 2.96 18 18 0 0 0 -9.07-1.84 18.5 18.5 0 0 0 -17.16 19.76c0 .38-.07 2.05 0 2.42 7 4.88 15.69 6.49 24.71 5.94 11.78-.71 21.86-7.38 29.17-15.78z" fill="url(#a)" opacity=".51"/><path d="m99.9 24.19a14.18 14.18 0 0 1 14.52 13.81l4.58-.12a18.75 18.75 0 0 0 -37.49.94l4.57-.11a14.19 14.19 0 0 1 13.82-14.52z" fill="#3c414b"/><path d="m172.88 22.37a14.18 14.18 0 0 1 14.52 13.82l4.57-.12a18.75 18.75 0 0 0 -37.49.94l4.58-.12a14.18 14.18 0 0 1 13.82-14.52z" fill="#3c414b"/><path d="m81.41 68.3s-7.64 1.87-6.09-2.3 7.28-8.11 10-6.61 1.21 4.93 1.21 4.93z"/><path d="m61.05 92.69s-13.51 18.93-12.17 23.41 11.62 6.36 11.62 6.36 1.92-17.24 6.79-27.46z" fill="url(#b)"/><path d="m287.51 315.26s-1.51-8.58-37.51-6.13-23.61 9-76.44 6.13-50.22-10.83-96.22.71-56.67 20.11-46.55 23.78-13.54 6.12 41 7.76 8.14-13.07 90.08-4.49 85.39 17.14 111.77 7.35 37.36-31.44 13.87-35.11z" fill="#b7b7b7" opacity=".08"/><g fill="#3c414b"><path d="m61.77 161.25-1.65-16.38-6.51 16.38z" opacity=".26"/><path d="m215.47 151.53 2-13.33 2.16 13.05z" opacity=".26"/><path d="m100.76 242.62 11.98-.72v7.77l-11.72-2.71z" opacity=".26"/><path d="m218.49 201.44s-.29 8.67-1.61 12.12l4.08-.25 1.38-12.11z" opacity=".26"/></g><path d="m217.85 190.85-153.43 14.15s0 12.86 4.17 19.1 149.9-22.69 149.9-22.69z" fill="#f2f2f2" opacity=".26"/></svg>